<svg xmlns="http://www.w3.org/2000/svg" xmlns:xlink="http://www.w3.org/1999/xlink" version="1.1" height="152.35085639953616" width="139.10400390625" viewBox="0 0 139.10400390625 152.35085639953616"><g id="SvgjsG1017" rel="mainfill" name="main_text" xmlns:name="mainText_mainfill" fill="url(#SvgjsLinearGradient1014)" transform="translate(0.0000015497207641601562,90.47085247039797)"><path d="M14.448 12.431999999999999 c0 0 12.348 28.518 12.348 28.56 c0.126 0.294 0.126 0.378 0.126 0.504 c0 0.336 -0.252 0.504 -0.714 0.504 l-25.41 0 c-0.462 0 -0.798 -0.252 -0.798 -0.63 c0 -0.126 0 -0.252 0.084 -0.378 l12.516 -28.56 c0.21 -0.42 0.42 -0.546 0.882 -0.546 l0.126 0 c0.546 0 0.63 0.126 0.84 0.546 z M13.524 18.438 l-8.526 19.992 l17.01 0 z M49.098 42 l-17.556 0 c-0.42 0 -0.63 -0.21 -0.63 -0.63 l0 -28.812 c0 -0.462 0.294 -0.63 0.672 -0.63 l2.142 0 c0.42 0 0.63 0.252 0.63 0.63 l0 25.956 l14.742 0 c0.42 0 0.63 0.378 0.63 0.714 l0 2.142 c-0.042 0.378 -0.252 0.588 -0.63 0.63 z M77.616 11.424 c0.378 0 0.798 0.21 0.798 0.63 l0 17.598 c0 6.93 -5.46 12.348 -12.39 12.348 c-6.678 0 -12.306 -5.628 -12.306 -12.348 l0 -17.598 c0 -0.336 0.252 -0.63 0.588 -0.63 l2.268 0 c0.336 0 0.672 0.294 0.672 0.63 l0 17.052 c0 5.334 3.57 9.534 8.946 9.534 c5.544 0 8.736 -4.368 8.736 -9.534 l0 -17.052 c0 -0.378 0.336 -0.63 0.714 -0.63 l1.974 0 z M107.18400000000001 11.886 l0.21 0 c0.63 0 0.798 0.294 0.798 0.672 l-0.21 28.812 c0 0.42 -0.252 0.63 -0.756 0.63 l-2.688 0 l-18.648 -25.2 l0 15.624 l7.35 0.042 c0.378 0 0.63 0.294 0.63 0.672 l0 2.142 c0 0.378 -0.252 0.714 -0.672 0.714 l-10.164 -0.042 c-0.42 0 -0.63 -0.21 -0.63 -0.546 l0 -22.974 c0 -0.378 0.294 -0.672 0.714 -0.672 l2.898 0 c0.294 0 0.504 0.126 0.672 0.336 l17.85 24.066 l0.168 -23.646 c0 -0.336 0.294 -0.63 0.63 -0.63 l1.848 0 z M96.894 38.472 c0.378 0 0.63 0.294 0.63 0.672 l0 2.142 c0 0.378 -0.294 0.714 -0.672 0.714 l-13.818 0 c-0.378 0 -0.63 -0.21 -0.63 -0.63 l0 -2.142 c0 -0.42 0.21 -0.756 0.672 -0.756 l13.818 0 z M126.63000000000002 12.431999999999999 c0 0 12.348 28.518 12.348 28.56 c0.126 0.294 0.126 0.378 0.126 0.504 c0 0.336 -0.252 0.504 -0.714 0.504 l-25.41 0 c-0.462 0 -0.798 -0.252 -0.798 -0.63 c0 -0.126 0 -0.252 0.084 -0.378 l12.516 -28.56 c0.21 -0.42 0.42 -0.546 0.882 -0.546 l0.126 0 c0.546 0 0.63 0.126 0.84 0.546 z M125.70600000000002 18.438 l-8.526 19.992 l17.01 0 z"></path></g><g id="SvgjsG1018" rel="mainfill" name="slogan_text" xmlns:name="sloganText_mainfill" fill="url(#SvgjsLinearGradient1014)" transform="translate(12.241509318351746,139.1688548088074)"><path d="M9.542 10.998000000000001 c-0.169 0.247 -0.351 0.481 -0.559 0.689 c-0.299 0.312 -0.637 0.572 -1.014 0.793 c-0.364 0.221 -0.767 0.403 -1.196 0.52 s-0.871 0.182 -1.326 0.182 c-0.676 0 -1.313 -0.13 -1.911 -0.39 s-1.118 -0.611 -1.573 -1.066 c-0.442 -0.442 -0.793 -0.962 -1.053 -1.56 s-0.39 -1.235 -0.39 -1.911 s0.13 -1.313 0.39 -1.911 s0.611 -1.118 1.053 -1.573 c0.455 -0.442 0.975 -0.793 1.573 -1.053 s1.235 -0.39 1.911 -0.39 c0.455 0 0.897 0.065 1.326 0.182 s0.832 0.286 1.196 0.507 c0.377 0.221 0.715 0.494 1.014 0.793 c0.208 0.221 0.39 0.442 0.559 0.689 c0.117 0.182 0.039 0.403 -0.169 0.481 l-0.962 0.39 c-0.195 0.091 -0.455 0.013 -0.598 -0.156 c-0.078 -0.091 -0.169 -0.182 -0.26 -0.273 c-0.182 -0.182 -0.39 -0.338 -0.611 -0.481 s-0.468 -0.247 -0.715 -0.325 s-0.507 -0.117 -0.78 -0.117 c-0.429 0 -0.845 0.091 -1.222 0.26 c-0.377 0.182 -0.702 0.416 -0.975 0.715 s-0.494 0.637 -0.663 1.027 c-0.169 0.403 -0.247 0.806 -0.247 1.235 s0.078 0.845 0.247 1.235 s0.39 0.728 0.663 1.027 s0.598 0.533 0.975 0.702 c0.377 0.182 0.793 0.273 1.222 0.273 c0.273 0 0.533 -0.039 0.78 -0.117 s0.494 -0.182 0.715 -0.325 s0.429 -0.299 0.611 -0.494 c0.091 -0.091 0.182 -0.182 0.26 -0.273 c0.143 -0.169 0.403 -0.247 0.598 -0.169 l0.962 0.39 c0.208 0.091 0.286 0.312 0.169 0.494 z M12.584 13 l-1.027 0 c-0.221 0 -0.403 -0.182 -0.403 -0.403 l0 -8.71 c0 -0.221 0.182 -0.403 0.403 -0.403 l3.926 0 c0.481 0 0.936 0.078 1.339 0.234 c0.403 0.169 0.741 0.39 1.027 0.676 c0.286 0.299 0.52 0.637 0.676 1.04 s0.234 0.845 0.234 1.326 c0 0.715 -0.169 1.352 -0.533 1.885 c-0.286 0.429 -0.65 0.754 -1.079 0.988 c-0.195 0.104 -0.26 0.312 -0.117 0.481 c0.637 0.858 1.196 1.599 1.82 2.457 c0.13 0.182 0.065 0.429 -0.156 0.429 l-1.313 0 c-0.221 0 -0.507 -0.143 -0.637 -0.312 c-0.299 -0.39 -0.585 -0.793 -0.871 -1.183 l-0.858 -1.209 c-0.13 -0.182 -0.416 -0.325 -0.637 -0.325 l-1.001 0 c-0.221 0 -0.403 0.182 -0.403 0.403 l0 2.223 c0 0.221 -0.169 0.403 -0.39 0.403 z M13.376999999999999 8.359 l2.106 0 c0.156 0 0.338 -0.039 0.507 -0.104 c0.182 -0.065 0.338 -0.156 0.481 -0.299 c0.13 -0.13 0.247 -0.299 0.338 -0.494 s0.13 -0.429 0.13 -0.702 c0 -0.143 -0.013 -0.299 -0.052 -0.494 c-0.026 -0.195 -0.104 -0.377 -0.195 -0.546 c-0.104 -0.169 -0.26 -0.325 -0.442 -0.442 c-0.195 -0.117 -0.455 -0.182 -0.767 -0.182 l-2.106 0 c-0.221 0 -0.403 0.182 -0.403 0.403 l0 2.457 c0 0.221 0.182 0.403 0.403 0.403 z M28.418 3.835000000000001 c-0.195 0.312 -0.403 0.65 -0.637 1.027 c-0.312 0.507 -0.637 1.027 -0.962 1.56 c-0.338 0.533 -0.663 1.066 -0.975 1.573 c-0.247 0.377 -0.455 0.728 -0.65 1.053 c-0.117 0.195 -0.195 0.533 -0.195 0.754 l0 2.795 c0 0.221 -0.182 0.403 -0.403 0.403 l-1.027 0 c-0.221 0 -0.39 -0.182 -0.39 -0.403 l0 -2.795 c0 -0.221 -0.091 -0.559 -0.208 -0.754 c-0.507 -0.871 -1.04 -1.742 -1.586 -2.6 c-0.572 -0.871 -1.105 -1.742 -1.612 -2.613 c-0.117 -0.182 -0.026 -0.338 0.195 -0.338 l1.326 0 c0.221 0 0.494 0.156 0.598 0.338 c0.325 0.546 0.663 1.105 1.001 1.677 c0.325 0.572 0.663 1.131 0.988 1.677 c0.104 0.182 0.299 0.182 0.416 0 c0.117 -0.208 0.247 -0.416 0.39 -0.637 l0.624 -1.053 s0.403 -0.689 0.611 -1.04 c0.13 -0.208 0.26 -0.416 0.377 -0.624 c0.104 -0.182 0.377 -0.338 0.598 -0.338 l1.326 0 c0.221 0 0.299 0.156 0.195 0.338 z M35.294999999999995 3.7439999999999998 c0.403 0.182 0.767 0.429 1.066 0.728 c0.312 0.299 0.546 0.663 0.728 1.066 c0.169 0.416 0.26 0.858 0.26 1.326 s-0.078 0.897 -0.234 1.3 s-0.377 0.741 -0.689 1.04 c-0.299 0.299 -0.689 0.533 -1.144 0.702 c-0.468 0.169 -1.001 0.26 -1.612 0.26 l-1.716 0 c-0.221 0 -0.403 0.182 -0.403 0.403 l0 2.028 c0 0.221 -0.169 0.403 -0.39 0.403 l-1.027 0 c-0.221 0 -0.403 -0.182 -0.403 -0.403 l0 -8.71 c0 -0.221 0.182 -0.403 0.403 -0.403 l3.835 0 c0.468 0 0.91 0.091 1.326 0.26 z M34.67099999999999 8.385 c0.208 -0.091 0.364 -0.208 0.494 -0.364 c0.117 -0.156 0.221 -0.338 0.273 -0.533 c0.065 -0.195 0.091 -0.403 0.091 -0.624 s-0.039 -0.429 -0.117 -0.65 c-0.078 -0.208 -0.182 -0.39 -0.338 -0.559 c-0.143 -0.169 -0.325 -0.299 -0.546 -0.403 c-0.208 -0.104 -0.468 -0.156 -0.754 -0.156 l-1.82 0 c-0.221 0 -0.403 0.182 -0.403 0.403 l0 2.626 c0 0.221 0.182 0.403 0.403 0.403 l2.015 0 c0.273 0 0.507 -0.052 0.702 -0.143 z M44.98 5.096 l-1.911 0 c-0.221 0 -0.403 0.182 -0.403 0.403 l0 7.098 c0 0.221 -0.182 0.403 -0.403 0.403 l-1.014 0 c-0.221 0 -0.403 -0.182 -0.403 -0.403 l0 -7.098 c0 -0.221 -0.182 -0.403 -0.403 -0.403 l-1.924 0 c-0.221 0 -0.403 -0.182 -0.403 -0.403 l0 -0.806 c0 -0.221 0.182 -0.403 0.403 -0.403 l6.461 0 c0.221 0 0.403 0.182 0.403 0.403 l0 0.806 c0 0.221 -0.182 0.403 -0.403 0.403 z M51.07699999999999 13.182 c-2.717 0 -4.927 -2.21 -4.927 -4.94 c0 -2.717 2.21 -4.94 4.927 -4.94 c2.73 0 4.94 2.223 4.94 4.94 c0 2.73 -2.21 4.94 -4.94 4.94 z M51.07699999999999 5.005 c-1.716 0 -3.12 1.521 -3.12 3.237 c0 1.729 1.404 3.25 3.12 3.25 c1.729 0 3.12 -1.521 3.12 -3.25 c0 -1.716 -1.391 -3.237 -3.12 -3.237 z  M61.29499999999999 12.649000000000001 l4.511 -9.009 c0.104 -0.208 0.416 -0.208 0.52 0 l4.511 9.009 c0.104 0.195 0.013 0.351 -0.208 0.351 l-1.183 0 c-0.221 0 -0.481 -0.156 -0.572 -0.364 l-0.39 -0.78 c-0.104 -0.195 -0.351 -0.351 -0.572 -0.351 l-3.692 0 c-0.221 0 -0.481 0.156 -0.572 0.364 l-0.377 0.767 c-0.104 0.208 -0.351 0.364 -0.572 0.364 l-1.183 0 c-0.221 0 -0.312 -0.156 -0.221 -0.351 z M65.10399999999998 9.919 l1.924 0 c0.221 0 0.312 -0.169 0.221 -0.364 l-1.014 -2.145 c-0.091 -0.208 -0.247 -0.208 -0.338 0 l-1.027 2.145 c-0.091 0.208 0.013 0.364 0.234 0.364 z M71.981 11.427 l0.546 -0.806 c0.117 -0.182 0.364 -0.221 0.546 -0.104 c0.377 0.234 0.754 0.442 1.144 0.624 c0.507 0.247 1.04 0.364 1.599 0.364 c0.299 0 0.559 -0.039 0.78 -0.117 c0.221 -0.065 0.416 -0.169 0.572 -0.286 s0.273 -0.247 0.351 -0.403 c0.078 -0.143 0.117 -0.299 0.117 -0.442 c0 -0.195 -0.065 -0.351 -0.182 -0.494 c-0.117 -0.13 -0.273 -0.234 -0.468 -0.325 s-0.416 -0.156 -0.689 -0.221 c-0.26 -0.065 -0.533 -0.117 -0.819 -0.169 c-0.195 -0.039 -0.416 -0.078 -0.663 -0.13 c-0.247 -0.039 -0.507 -0.104 -0.78 -0.195 c-0.273 -0.078 -0.533 -0.182 -0.793 -0.325 c-0.26 -0.13 -0.494 -0.299 -0.702 -0.507 c-0.208 -0.195 -0.377 -0.442 -0.507 -0.728 c-0.117 -0.273 -0.182 -0.611 -0.182 -0.988 c0 -0.559 0.117 -1.014 0.338 -1.391 c0.221 -0.364 0.507 -0.65 0.858 -0.871 c0.351 -0.208 0.741 -0.351 1.17 -0.442 s0.845 -0.13 1.248 -0.13 s0.754 0.026 1.066 0.078 s0.598 0.13 0.871 0.221 c0.273 0.104 0.533 0.234 0.78 0.377 c0.169 0.104 0.325 0.208 0.507 0.312 c0.182 0.13 0.221 0.377 0.091 0.559 l-0.546 0.78 c-0.13 0.182 -0.377 0.221 -0.572 0.104 c-0.325 -0.208 -0.65 -0.377 -0.962 -0.494 c-0.416 -0.169 -0.858 -0.247 -1.313 -0.247 c-0.156 0 -0.338 0.013 -0.533 0.052 s-0.39 0.104 -0.572 0.195 c-0.169 0.091 -0.325 0.195 -0.442 0.325 c-0.117 0.143 -0.169 0.299 -0.169 0.494 s0.065 0.351 0.208 0.481 s0.312 0.234 0.533 0.325 s0.455 0.156 0.715 0.221 s0.507 0.117 0.754 0.182 c0.182 0.039 0.39 0.091 0.637 0.13 s0.507 0.104 0.767 0.182 c0.143 0.039 0.286 0.091 0.429 0.143 c0.208 0.091 0.52 0.247 0.702 0.377 c0.13 0.078 0.247 0.182 0.351 0.286 c0.208 0.208 0.377 0.455 0.494 0.754 c0.13 0.299 0.195 0.663 0.195 1.092 c0 0.494 -0.091 0.923 -0.26 1.287 s-0.416 0.663 -0.741 0.897 c-0.325 0.247 -0.702 0.429 -1.144 0.546 s-0.936 0.182 -1.469 0.182 c-0.494 0 -0.936 -0.039 -1.313 -0.117 c-0.377 -0.065 -0.715 -0.169 -1.027 -0.299 c-0.312 -0.117 -0.611 -0.273 -0.884 -0.442 c-0.169 -0.104 -0.351 -0.221 -0.533 -0.351 c-0.182 -0.117 -0.221 -0.364 -0.104 -0.546 z M80.821 11.427 l0.546 -0.806 c0.117 -0.182 0.364 -0.221 0.546 -0.104 c0.377 0.234 0.754 0.442 1.144 0.624 c0.507 0.247 1.04 0.364 1.599 0.364 c0.299 0 0.559 -0.039 0.78 -0.117 c0.221 -0.065 0.416 -0.169 0.572 -0.286 s0.273 -0.247 0.351 -0.403 c0.078 -0.143 0.117 -0.299 0.117 -0.442 c0 -0.195 -0.065 -0.351 -0.182 -0.494 c-0.117 -0.13 -0.273 -0.234 -0.468 -0.325 s-0.416 -0.156 -0.689 -0.221 c-0.26 -0.065 -0.533 -0.117 -0.819 -0.169 c-0.195 -0.039 -0.416 -0.078 -0.663 -0.13 c-0.247 -0.039 -0.507 -0.104 -0.78 -0.195 c-0.273 -0.078 -0.533 -0.182 -0.793 -0.325 c-0.26 -0.13 -0.494 -0.299 -0.702 -0.507 c-0.208 -0.195 -0.377 -0.442 -0.507 -0.728 c-0.117 -0.273 -0.182 -0.611 -0.182 -0.988 c0 -0.559 0.117 -1.014 0.338 -1.391 c0.221 -0.364 0.507 -0.65 0.858 -0.871 c0.351 -0.208 0.741 -0.351 1.17 -0.442 s0.845 -0.13 1.248 -0.13 s0.754 0.026 1.066 0.078 s0.598 0.13 0.871 0.221 c0.273 0.104 0.533 0.234 0.78 0.377 c0.169 0.104 0.325 0.208 0.507 0.312 c0.182 0.13 0.221 0.377 0.091 0.559 l-0.546 0.78 c-0.13 0.182 -0.377 0.221 -0.572 0.104 c-0.325 -0.208 -0.65 -0.377 -0.962 -0.494 c-0.416 -0.169 -0.858 -0.247 -1.313 -0.247 c-0.156 0 -0.338 0.013 -0.533 0.052 s-0.39 0.104 -0.572 0.195 c-0.169 0.091 -0.325 0.195 -0.442 0.325 c-0.117 0.143 -0.169 0.299 -0.169 0.494 s0.065 0.351 0.208 0.481 s0.312 0.234 0.533 0.325 s0.455 0.156 0.715 0.221 s0.507 0.117 0.754 0.182 c0.182 0.039 0.39 0.091 0.637 0.13 s0.507 0.104 0.767 0.182 c0.143 0.039 0.286 0.091 0.429 0.143 c0.208 0.091 0.52 0.247 0.702 0.377 c0.13 0.078 0.247 0.182 0.351 0.286 c0.208 0.208 0.377 0.455 0.494 0.754 c0.13 0.299 0.195 0.663 0.195 1.092 c0 0.494 -0.091 0.923 -0.26 1.287 s-0.416 0.663 -0.741 0.897 c-0.325 0.247 -0.702 0.429 -1.144 0.546 s-0.936 0.182 -1.469 0.182 c-0.494 0 -0.936 -0.039 -1.313 -0.117 c-0.377 -0.065 -0.715 -0.169 -1.027 -0.299 c-0.312 -0.117 -0.611 -0.273 -0.884 -0.442 c-0.169 -0.104 -0.351 -0.221 -0.533 -0.351 c-0.182 -0.117 -0.221 -0.364 -0.104 -0.546 z M91.637 5.499 l0 1.573 c0 0.221 0.182 0.403 0.403 0.403 l3.796 0 c0.221 0 0.403 0.182 0.403 0.403 l0 0.845 c0 0.221 -0.182 0.403 -0.403 0.403 l-3.796 0 c-0.221 0 -0.403 0.182 -0.403 0.403 l0 1.43 c0 0.221 0.182 0.403 0.403 0.403 l4.381 0 c0.221 0 0.403 0.182 0.403 0.403 l0 0.832 c0 0.221 -0.182 0.403 -0.403 0.403 l-6.201 0 c-0.221 0 -0.403 -0.182 -0.403 -0.403 l0 -8.71 c0 -0.221 0.182 -0.403 0.403 -0.403 l6.201 0 c0.221 0 0.403 0.182 0.403 0.403 l0 0.806 c0 0.221 -0.182 0.403 -0.403 0.403 l-4.381 0 c-0.221 0 -0.403 0.182 -0.403 0.403 z M105.131 5.096 l-1.911 0 c-0.221 0 -0.403 0.182 -0.403 0.403 l0 7.098 c0 0.221 -0.182 0.403 -0.403 0.403 l-1.014 0 c-0.221 0 -0.403 -0.182 -0.403 -0.403 l0 -7.098 c0 -0.221 -0.182 -0.403 -0.403 -0.403 l-1.924 0 c-0.221 0 -0.403 -0.182 -0.403 -0.403 l0 -0.806 c0 -0.221 0.182 -0.403 0.403 -0.403 l6.461 0 c0.221 0 0.403 0.182 0.403 0.403 l0 0.806 c0 0.221 -0.182 0.403 -0.403 0.403 z M106.626 11.427 l0.546 -0.806 c0.117 -0.182 0.364 -0.221 0.546 -0.104 c0.377 0.234 0.754 0.442 1.144 0.624 c0.507 0.247 1.04 0.364 1.599 0.364 c0.299 0 0.559 -0.039 0.78 -0.117 c0.221 -0.065 0.416 -0.169 0.572 -0.286 s0.273 -0.247 0.351 -0.403 c0.078 -0.143 0.117 -0.299 0.117 -0.442 c0 -0.195 -0.065 -0.351 -0.182 -0.494 c-0.117 -0.13 -0.273 -0.234 -0.468 -0.325 s-0.416 -0.156 -0.689 -0.221 c-0.26 -0.065 -0.533 -0.117 -0.819 -0.169 c-0.195 -0.039 -0.416 -0.078 -0.663 -0.13 c-0.247 -0.039 -0.507 -0.104 -0.78 -0.195 c-0.273 -0.078 -0.533 -0.182 -0.793 -0.325 c-0.26 -0.13 -0.494 -0.299 -0.702 -0.507 c-0.208 -0.195 -0.377 -0.442 -0.507 -0.728 c-0.117 -0.273 -0.182 -0.611 -0.182 -0.988 c0 -0.559 0.117 -1.014 0.338 -1.391 c0.221 -0.364 0.507 -0.65 0.858 -0.871 c0.351 -0.208 0.741 -0.351 1.17 -0.442 s0.845 -0.13 1.248 -0.13 s0.754 0.026 1.066 0.078 s0.598 0.13 0.871 0.221 c0.273 0.104 0.533 0.234 0.78 0.377 c0.169 0.104 0.325 0.208 0.507 0.312 c0.182 0.13 0.221 0.377 0.091 0.559 l-0.546 0.78 c-0.13 0.182 -0.377 0.221 -0.572 0.104 c-0.325 -0.208 -0.65 -0.377 -0.962 -0.494 c-0.416 -0.169 -0.858 -0.247 -1.313 -0.247 c-0.156 0 -0.338 0.013 -0.533 0.052 s-0.39 0.104 -0.572 0.195 c-0.169 0.091 -0.325 0.195 -0.442 0.325 c-0.117 0.143 -0.169 0.299 -0.169 0.494 s0.065 0.351 0.208 0.481 s0.312 0.234 0.533 0.325 s0.455 0.156 0.715 0.221 s0.507 0.117 0.754 0.182 c0.182 0.039 0.39 0.091 0.637 0.13 s0.507 0.104 0.767 0.182 c0.143 0.039 0.286 0.091 0.429 0.143 c0.208 0.091 0.52 0.247 0.702 0.377 c0.13 0.078 0.247 0.182 0.351 0.286 c0.208 0.208 0.377 0.455 0.494 0.754 c0.13 0.299 0.195 0.663 0.195 1.092 c0 0.494 -0.091 0.923 -0.26 1.287 s-0.416 0.663 -0.741 0.897 c-0.325 0.247 -0.702 0.429 -1.144 0.546 s-0.936 0.182 -1.469 0.182 c-0.494 0 -0.936 -0.039 -1.313 -0.117 c-0.377 -0.065 -0.715 -0.169 -1.027 -0.299 c-0.312 -0.117 -0.611 -0.273 -0.884 -0.442 c-0.169 -0.104 -0.351 -0.221 -0.533 -0.351 c-0.182 -0.117 -0.221 -0.364 -0.104 -0.546 z"></path></g><defs id="SvgjsDefs1013"><linearGradient id="SvgjsLinearGradient1014"><stop id="SvgjsStop1015" stop-color="#b88746" offset="0"></stop><stop id="SvgjsStop1016" stop-color="#fdf5a6" offset="1"></stop></linearGradient></defs><g id="SvgjsG1019" rel="mainfill" name="symbol" xmlns:name="symbol_mainfill" fill="url(#SvgjsLinearGradient1014)" transform="translate(12.27631981292075,-14.000722300938817) scale(1.2727929364489834)"><path xmlns="http://www.w3.org/2000/svg" d="M5,51h23.677L45,79.271L61.322,51H85v-6H64.786l19.63-34H5.584l19.63,34H5V51z M45,68.368L34.972,51h20.055L45,68.368z   M14.765,16h60.47L58.492,45H31.508L14.765,16z"></path></g></svg>